<svg xmlns="http://www.w3.org/2000/svg" width="34" height="31" viewBox="0 0 34 31"><g><g><path fill="#006384" d="M-.06 9.44H30.76v.852c-.003 3.16-.002 6.322-.01 9.483-.003 1.534-1.304 2.859-2.837 2.869-1.972.013-3.944 0-5.916 0-2.087 0-4.175.004-6.262.004-2.096 0-4.19-.004-6.286-.004-2.172 0-4.344.006-6.517.004-1.52-.002-2.746-1.032-2.956-2.521-.07-.492-.033-1-.033-1.501-.003-2.29-.002-4.58-.002-6.87V9.44zm16.866 2.207H5.096v1.435h11.71v-1.435zm13.93-5.9H-.06c0-.322-.005-.642 0-.961.011-.57-.038-1.15.055-1.706C.25 1.57 1.426.615 2.966.611 5.06.607 7.154.613 9.248.613h15.386c1.025 0 2.049-.002 3.073-.003 1.745-.003 3.027 1.253 3.049 2.998.008.655-.002 1.31-.004 1.966 0 .052-.01.104-.017.172zm1.52 9.045l.415 2.337c.32 1.803.624 3.61.965 5.41.306 1.608-.715 3.172-2.322 3.464-2.67.485-5.343.957-8.015 1.435l-7.81 1.4c-2.582.46-5.164.92-7.747 1.373-.551.096-1.11.225-1.664.22-1.346-.013-2.443-.915-2.721-2.236-.276-1.31-.487-2.633-.726-3.951-.007-.038-.008-.076-.013-.134h1.613c4.467.001 8.935.004 13.402.004 3.405 0 6.81 0 10.214-.008a4.379 4.379 0 0 0 4.37-4.368c.01-1.588 0-3.176 0-4.764v-.183h.039z"/></g></g></svg>