<svg xmlns="http://www.w3.org/2000/svg" width="33" height="34" viewBox="0 0 33 34"><defs><mask id="luv6b" width="2" height="2" x="-1" y="-1"><path fill="#fff" d="M1 0h32v32H1z"/><path d="M15.92.661h1.328c.067.008.134.024.202.028 1.358.07 2.684.32 3.97.759 3.452 1.177 6.176 3.298 8.17 6.341a14.984 14.984 0 0 1 2.392 6.705c.035.322.06.647.091.97v1.325c-.01.067-.023.133-.027.201a13.966 13.966 0 0 1-.566 3.333c-1.383 4.55-4.24 7.841-8.535 9.88-1.494.708-3.078 1.127-4.724 1.299-.324.033-.649.06-.973.09H15.92c-.214-.02-.429-.04-.643-.058a14.965 14.965 0 0 1-4.724-1.182 15.533 15.533 0 0 1-6.758-5.558 15.113 15.113 0 0 1-2.61-7.034c-.033-.313-.06-.626-.09-.94v-1.388c.01-.061.024-.123.027-.185.054-1.005.206-1.996.468-2.969.974-3.613 2.99-6.517 6.018-8.71 2.19-1.588 4.644-2.522 7.339-2.816.324-.036.649-.06.973-.09zm10 26.036c3.736-3.107 6.002-8.714 4.316-14.527-1.768-6.093-7.347-10.25-13.698-10.239-6.32.013-11.907 4.228-13.63 10.312-1.653 5.84.658 11.396 4.334 14.452.026-2.102.687-3.973 1.988-5.607 1.297-1.628 2.972-2.699 4.996-3.264-2.483-.992-4.43-4.06-3.612-7.247.695-2.706 3.185-4.635 5.99-4.617 2.82.019 5.289 1.954 5.95 4.647.735 2.996-.844 6.23-3.61 7.217 1.999.596 3.647 1.695 4.942 3.305 1.3 1.618 2.002 3.462 2.034 5.568z"/></mask><filter id="luv6a" width="54" height="55" x="-10" y="-11" filterUnits="userSpaceOnUse"><feOffset dy="1" in="SourceGraphic" result="FeOffset1023Out"/><feGaussianBlur in="FeOffset1023Out" result="FeGaussianBlur1024Out" stdDeviation="0.4 0.4"/></filter></defs><g><g><g filter="url(#luv6a)"><path fill="none" d="M15.92.661h1.328c.067.008.134.024.202.028 1.358.07 2.684.32 3.97.759 3.452 1.177 6.176 3.298 8.17 6.341a14.984 14.984 0 0 1 2.392 6.705c.035.322.06.647.091.97v1.325c-.01.067-.023.133-.027.201a13.966 13.966 0 0 1-.566 3.333c-1.383 4.55-4.24 7.841-8.535 9.88-1.494.708-3.078 1.127-4.724 1.299-.324.033-.649.06-.973.09H15.92c-.214-.02-.429-.04-.643-.058a14.965 14.965 0 0 1-4.724-1.182 15.533 15.533 0 0 1-6.758-5.558 15.113 15.113 0 0 1-2.61-7.034c-.033-.313-.06-.626-.09-.94v-1.388c.01-.061.024-.123.027-.185.054-1.005.206-1.996.468-2.969.974-3.613 2.99-6.517 6.018-8.71 2.19-1.588 4.644-2.522 7.339-2.816.324-.036.649-.06.973-.09zm10 26.036c3.736-3.107 6.002-8.714 4.316-14.527-1.768-6.093-7.347-10.25-13.698-10.239-6.32.013-11.907 4.228-13.63 10.312-1.653 5.84.658 11.396 4.334 14.452.026-2.102.687-3.973 1.988-5.607 1.297-1.628 2.972-2.699 4.996-3.264-2.483-.992-4.43-4.06-3.612-7.247.695-2.706 3.185-4.635 5.99-4.617 2.82.019 5.289 1.954 5.95 4.647.735 2.996-.844 6.23-3.61 7.217 1.999.596 3.647 1.695 4.942 3.305 1.3 1.618 2.002 3.462 2.034 5.568z" mask="url(&quot;#luv6b&quot;)"/><path fill-opacity=".3" d="M15.92.661h1.328c.067.008.134.024.202.028 1.358.07 2.684.32 3.97.759 3.452 1.177 6.176 3.298 8.17 6.341a14.984 14.984 0 0 1 2.392 6.705c.035.322.06.647.091.97v1.325c-.01.067-.023.133-.027.201a13.966 13.966 0 0 1-.566 3.333c-1.383 4.55-4.24 7.841-8.535 9.88-1.494.708-3.078 1.127-4.724 1.299-.324.033-.649.06-.973.09H15.92c-.214-.02-.429-.04-.643-.058a14.965 14.965 0 0 1-4.724-1.182 15.533 15.533 0 0 1-6.758-5.558 15.113 15.113 0 0 1-2.61-7.034c-.033-.313-.06-.626-.09-.94v-1.388c.01-.061.024-.123.027-.185.054-1.005.206-1.996.468-2.969.974-3.613 2.99-6.517 6.018-8.71 2.19-1.588 4.644-2.522 7.339-2.816.324-.036.649-.06.973-.09zm10 26.036c3.736-3.107 6.002-8.714 4.316-14.527-1.768-6.093-7.347-10.25-13.698-10.239-6.32.013-11.907 4.228-13.63 10.312-1.653 5.84.658 11.396 4.334 14.452.026-2.102.687-3.973 1.988-5.607 1.297-1.628 2.972-2.699 4.996-3.264-2.483-.992-4.43-4.06-3.612-7.247.695-2.706 3.185-4.635 5.99-4.617 2.82.019 5.289 1.954 5.95 4.647.735 2.996-.844 6.23-3.61 7.217 1.999.596 3.647 1.695 4.942 3.305 1.3 1.618 2.002 3.462 2.034 5.568z"/></g><path fill="#fff" d="M15.92.661h1.328c.067.008.134.024.202.028 1.358.07 2.684.32 3.97.759 3.452 1.177 6.176 3.298 8.17 6.341a14.984 14.984 0 0 1 2.392 6.705c.035.322.06.647.091.97v1.325c-.01.067-.023.133-.027.201a13.966 13.966 0 0 1-.566 3.333c-1.383 4.55-4.24 7.841-8.535 9.88-1.494.708-3.078 1.127-4.724 1.299-.324.033-.649.06-.973.09H15.92c-.214-.02-.429-.04-.643-.058a14.965 14.965 0 0 1-4.724-1.182 15.533 15.533 0 0 1-6.758-5.558 15.113 15.113 0 0 1-2.61-7.034c-.033-.313-.06-.626-.09-.94v-1.388c.01-.061.024-.123.027-.185.054-1.005.206-1.996.468-2.969.974-3.613 2.99-6.517 6.018-8.71 2.19-1.588 4.644-2.522 7.339-2.816.324-.036.649-.06.973-.09zm10 26.036c3.736-3.107 6.002-8.714 4.316-14.527-1.768-6.093-7.347-10.25-13.698-10.239-6.32.013-11.907 4.228-13.63 10.312-1.653 5.84.658 11.396 4.334 14.452.026-2.102.687-3.973 1.988-5.607 1.297-1.628 2.972-2.699 4.996-3.264-2.483-.992-4.43-4.06-3.612-7.247.695-2.706 3.185-4.635 5.99-4.617 2.82.019 5.289 1.954 5.95 4.647.735 2.996-.844 6.23-3.61 7.217 1.999.596 3.647 1.695 4.942 3.305 1.3 1.618 2.002 3.462 2.034 5.568z"/></g></g></svg>